<svg viewBox="0 0 555.59 508.82" xmlns="http://www.w3.org/2000/svg"><g stroke="#231f20" stroke-miterlimit="10"><path d="m511.14 428.86h-466.8l229.16-381.44z" fill="none" stroke-width="4"/><path d="m550.18 451h-544.88l267.49-445.25z" fill="none" stroke-width="6"/><circle cx="277.74" cy="303.8" fill="#fff" r="202.02" stroke-width="6"/><circle cx="277.74" cy="303.8" fill="#fff" r="180.08" stroke-width="4"/><path d="m277.74 303.8-18.36-179.16a183.66 183.66 0 0 1 36.72 0z" stroke-width="2"/><path d="m277.74 303.8 179.16-18.36a181.7 181.7 0 0 1 0 36.72z" stroke-width="2"/><path d="m277.74 303.8 18.36 179.2a183.66 183.66 0 0 1 -36.72 0z" stroke-width="2"/><path d="m277.74 303.8-179.16 18.36a183.66 183.66 0 0 1 0-36.72z" stroke-width="2"/><path d="m277.74 303.8 74.51-164a180.32 180.32 0 0 1 16.32 8.46 182.87 182.87 0 0 1 15.38 10q-53.1 72.74-106.21 145.45" stroke-width="2"/><path d="m277.74 303.8 164 74.51c-2.32 5.08-5.11 10.57-8.46 16.32-2.82 4.82-6.15 10-10.06 15.38z" stroke-width="2"/><path d="m277.74 303.8-74.51 164a178.91 178.91 0 0 1 -16.31-8.46 181.33 181.33 0 0 1 -15.39-10.05q53.1-72.74 106.21-145.45" stroke-width="2"/><path d="m277.74 303.8-164-74.51a182.05 182.05 0 0 1 18.52-31.7z" stroke-width="2"/><path d="m277.74 303.8 74.51 164a180.32 180.32 0 0 0 16.32-8.46 182.87 182.87 0 0 0 15.43-10.09q-53.1-72.74-106.21-145.45" stroke-width="2"/><path d="m277.74 303.8 164-74.51c-2.32-5.08-5.11-10.57-8.46-16.32-2.82-4.82-6.15-10-10.06-15.38z" stroke-width="2"/><path d="m277.74 303.8-74.51-164a178.91 178.91 0 0 0 -16.31 8.46 181.33 181.33 0 0 0 -15.39 10q53.1 72.74 106.21 145.45" stroke-width="2"/><path d="m277.74 303.8-164 74.51a182.05 182.05 0 0 0 18.56 31.69z" stroke-width="2"/><path d="m129.4 255.44s2.07-29 0-33.86-8.29-34.54-8.29-38.69 1.15-28.33 9.21-35.93 15.66-9.67 21.19-6.22 21.42 17.28 25.56 20.73 18.66 19.35 22.11 21.42 19.35 19.35 22.82 22.11 9.68 18.66 9.68 18.66 5.52-9 11.05-7.6 6.22-.7 11.06-.7 8.29-2.07 12.43-2.07 9 3.46 9 3.46a6.11 6.11 0 0 1 6.9-4.15c5.53.69 5.53 1.38 11.06 1.38s0-.69 5.53 0 6.91-.69 11.74-.69 18.66-18.65 22.8-23.49 26.26-30.4 30.4-32.47 20-15 29-18.21 11.75-4.38 20 0 11.08 16.82 10.35 18.88.21 2.07.1 11-4.93 26-7.7 33-5.52 12.57-5.52 16 4.83 14.51.69 23.49-11.75 15.2-13.13 18.65-1.38 10.37-3.46 11.06-.69 4.84-3.45 7.6-9 5.53-9 5.53-11.06 47.41-13.13 53.76a103.82 103.82 0 0 1 -6.22 16c-2.76 5.53-13.13 26.95-16.58 27.64s-4.15 1.38-4.84 5.52 3.46 9.68-3.45 16.59-11.75 15.2-17.27 15.89-6.22-7.6-10.37 0-8.29 11.74-13.82 12.43-16.58 4.84-20 0-1.39-6.21-10.37-7.6-20-6.9-22.8-10.36-10.36-14.51-14.51-17.27-13.13-12.44-19.34-15.2-22.11-17.28-24.19-21.42-10.36-26.25-11.74-30-6.22-26-8.29-29.77-.69-11.45-5.53-15.2-13.82-5.82-14.51-10 2.07.22-2.07-9.22a18.55 18.55 0 0 0 -13.1-10.68z" fill="#fff" stroke-width="6"/><path d="m206.73 312.82c3.4 0 42-12 49.4 17.59s0 14.21 0 14.21-8.52-8.26-13.63-6.4-16.47 5.52-23.28 0-12.49-25.4-12.49-25.4z" stroke-width="4"/><path d="m316.69 336.91c1.47-9.55 2.21-14.32 2.92-16 4.51-10.44 16.47-14.39 19.29-15.32a37.58 37.58 0 0 1 24 .39c.05 1.38.35 15.77-10.22 23.5-1.61 1.18-8.51 6.23-16.36 5.12-2.75-.39-4.62-1.39-7.48-.71-3.86.92-6.39 4.15-7.91 6.67-1.65 2.68-3.8 5.81-4.76 5.43s-.4-3.13.52-9.08z" stroke-width="4"/></g><text fill="#231f20" font-family="Cubano-Regular, Cubano" font-size="81.47" transform="matrix(.99464886 -.10331335 .10331335 .99464886 214.93 303.79)">T<tspan letter-spacing="-.01em" x="48.23" y="0">F</tspan><tspan x="92.23" y="0">O</tspan></text><path d="m251.12 336.07c-1.07 1.25-3.52-1.4-9.66-.91-5.8.45-7.7 3.13-12.76 2.55a15.2 15.2 0 0 1 -6.37-2.37c-8.5-5.27-8.91-17.13-8.93-18.41 2.58-1.35 10.33-5 19.13-2.55 13.47 3.69 20.82 19.08 18.59 21.69z" fill="#fff"/><path d="m359.63 311.35a25.31 25.31 0 0 1 -4.62 10.3c-1 1.31-6.28 8.2-14.32 9.11-4.59.52-6.06-1.36-11.27-.06-3.77.94-5.46 2.55-6.63 1.71-1.73-1.24-.38-6.45 1.2-9.89 2.58-5.62 8.79-13.07 18.67-14.65a25.66 25.66 0 0 1 16.97 3.48z" fill="#fff"/></svg>