<svg xmlns="http://www.w3.org/2000/svg" viewBox="0 0 719.31 245.68" width="719.31" height="245.68"><g fill="#5f7746"><path d="M45.82 35.2c-3-4.51-11.34-7.54-17.47-3.87-4.66 2.79-8 9.28-5.78 13.15 1.68 3 5.16 5.26 4.3 6.38s-4.56-2.38-6.87 3.71a25.23 25.23 0 0 0-1.67 7.26c-.2 3.16.75 3.68.12 4.76-1.21 2.11-4.74 1-8.66 2.17C5.26 70.1.63 74.35.06 78.68c-.94 7.23 9.29 15.57 17.29 15.07 2.07-.12 5.54-1.61 12.48-4.6 5.76-2.47 6.45-3.16 8.58-3.06 4.86.23 6 4.06 11.07 4.12.66 0 5.24 0 7.05-2.8 2.11-3.28-1.88-6.77 0-10.74 1.71-3.52 5.7-2.51 7.13-5.89S62.43 62.44 60.25 60c-3-3.39-5.39-2.84-8.22-6.74-1.13-1.55-1.67-3-2.71-5.88-2.87-7.88-1.75-9.52-3.5-12.18z"/><path d="M64.82 31.75c-3.81-1.82-11.1 1.32-13.33 6.93-2.88 7.24 4.4 14.19 5.34 15.07C60.89 57.52 67 59.52 72.59 58c3.41-.91 8.44-3.61 8.57-7.19.07-1.92-1.29-3.42-3-5.37-3.15-3.48-5-3.16-7.94-6-3.92-3.77-2.75-6.44-5.4-7.69zm25.04 33.59c-4.78-1.06-11.84-.24-14 3.91-2.11 3.94-1.15 6.85 2.31 9.18s11.66 10 15.48 9.85c.92 0 8.67 1.07 10.89-2.68 2.95-5.05-4.45-18-14.68-20.26zM92 92.61c-1-.73-1.44-1.26-5.15-1.51-5.81-.38-8.11-3.64-12.52-3s-8.27.1-8.63 5.17 1.24 12.5 6.38 14.39c7.3 2.68 13.61 1.9 15.53 1.22 2.74-1 6.71-2.35 8-6.21s-.84-8.09-3.61-10.06zm-53-.95a14.5 14.5 0 0 0-7.66 1.76c-1.67.93-5 2.76-5.74 6.29-.82 3.92 2 7.94 4.95 9.65 2.31 1.33 2.92.24 8.37 1.58 4.54 1.13 5.15 2.14 7.75 2 .26 0 5.35-.33 6.89-3.22 2.62-4.97-5.34-17.35-14.56-18.06z"/></g><path fill="#5b4b3a" d="M660 218.15c-3 4.51-11.33 7.54-17.47 3.87-4.66-2.79-8-9.28-5.78-13.15 1.68-3 5.16-5.26 4.3-6.37s-4.56 2.37-6.86-3.71a24.69 24.69 0 0 1-1.67-7.27c-.21-3.15.74-3.68.12-4.76-1.22-2.11-4.75-1-8.67-2.17-4.53-1.34-9.16-5.59-9.73-9.92-.94-7.23 9.29-15.57 17.29-15.07 2.07.13 5.54 1.62 12.49 4.6 5.75 2.47 6.44 3.16 8.57 3.06 4.86-.22 6-4.06 11.07-4.12.66 0 5.24 0 7 2.8 2.11 3.28-1.88 6.77 0 10.74 1.7 3.52 5.69 2.51 7.13 5.89s-1.27 8.34-3.44 10.79c-3 3.39-5.4 2.85-8.23 6.74-1.13 1.55-1.67 3-2.71 5.88-2.82 7.88-1.69 9.52-3.41 12.17z"/><path fill="#5b4b3a" d="M679 221.6c-3.81 1.83-11.1-1.32-13.34-6.93-2.88-7.23 4.4-14.19 5.35-15.07 4-3.77 10.16-5.77 15.75-4.28 3.41.91 8.44 3.61 8.57 7.19.08 1.92-1.29 3.43-3 5.37-3.15 3.48-5 3.16-7.94 6-3.95 3.8-2.77 6.45-5.39 7.72zm25-33.6c-4.78 1.06-11.83.24-14-3.91-2.1-3.93-1.14-6.85 2.32-9.18s11.65-10 15.47-9.85c.92.05 8.67-1.07 10.9 2.68 2.94 5.06-4.46 18.01-14.69 20.26zm2.09-27.26c-1.05.74-1.43 1.26-5.14 1.51-5.81.39-8.12 3.64-12.53 3s-8.26-.1-8.62-5.17 1.23-12.5 6.38-14.39c7.29-2.68 13.61-1.9 15.53-1.22 2.73 1 6.7 2.36 8 6.21s-.8 8.09-3.62 10.06zm-52.98.96a14.63 14.63 0 0 1-7.66-1.77c-1.67-.92-5-2.76-5.74-6.29-.82-3.92 2-7.94 5-9.65 2.3-1.33 2.92-.24 8.37-1.58 4.53-1.12 5.14-2.14 7.74-2 .26 0 5.35.33 6.89 3.22 2.62 4.97-5.34 17.37-14.6 18.07z"/><path fill="#aa9c62" d="M469.16 6.73C465.51 1.22 455.3-2.49 447.8 2c-5.69 3.41-9.73 11.35-7.06 16.08 2.05 3.64 6.31 6.43 5.25 7.79s-5.57-2.87-8.39 4.53a31 31 0 0 0-2 8.88c-.25 3.86.91 4.5.15 5.82-1.49 2.58-5.8 1.23-10.59 2.65-5.54 1.64-11.2 6.83-11.89 12.13-1.16 8.83 11.35 19 21.13 18.42 2.53-.15 6.77-2 15.26-5.62 7-3 7.87-3.87 10.48-3.75 5.94.28 7.32 5 13.54 5 .79 0 6.39 0 8.61-3.43 2.58-4-2.3-8.28 0-13.13 2.08-4.3 7-3.07 8.72-7.2 1.83-4.3-1.55-10.19-4.21-13.19-3.67-4.14-6.59-3.47-10.06-8.24-1.37-1.89-2-3.68-3.31-7.18-3.5-9.56-2.13-11.56-4.27-14.83z"/><path fill="#aa9c62" d="M492.39 2.52c-4.66-2.23-13.57 1.61-16.3 8.48-3.52 8.84 5.37 17.34 6.53 18.42 5 4.6 12.42 7.05 19.25 5.23 4.18-1.12 10.32-4.42 10.49-8.79.08-2.35-1.58-4.19-3.74-6.57-3.85-4.25-6.14-3.86-9.7-7.34-4.73-4.64-3.29-7.88-6.53-9.43zM523 43.57c-5.84-1.29-14.46-.29-17.17 4.78-2.57 4.81-1.4 8.38 2.83 11.22s14.25 12.28 18.92 12c1.12 0 10.59 1.31 13.31-3.28 3.65-6.13-5.4-21.95-17.89-24.72zm2.54 33.34c-1.29-.9-1.75-1.55-6.29-1.85-7.1-.47-9.92-4.45-15.3-3.62s-10.11.13-10.55 6.33 1.51 15.27 7.8 17.58c8.91 3.27 16.63 2.32 19 1.49 3.35-1.17 8.2-2.88 9.73-7.59s-.93-9.93-4.39-12.34zm-64.76-1.17a17.71 17.71 0 0 0-9.35 2.16c-2.05 1.13-6.12 3.37-7 7.68-1 4.8 2.42 9.7 6.06 11.8 2.82 1.62 3.57.29 10.23 1.93 5.54 1.37 6.29 2.61 9.47 2.45.31 0 6.53-.39 8.42-3.93 3.22-6.08-6.51-21.22-17.83-22.09z"/><path fill="#779186" d="M261.34 238.53c-3.87 5.85-14.72 9.8-22.68 5-6-3.63-10.34-12.06-7.51-17.08 2.18-3.87 6.7-6.83 5.58-8.28s-5.92 3.09-8.91-4.82a32.64 32.64 0 0 1-2.17-9.43c-.27-4.1 1-4.78.16-6.18-1.58-2.75-6.16-1.31-11.25-2.82-5.89-1.74-11.9-7.26-12.64-12.88-1.22-9.39 12.07-20.22 22.45-19.58 2.69.17 7.2 2.11 16.22 6 7.47 3.21 8.36 4.11 11.13 4 6.31-.3 7.78-5.27 14.38-5.36.85 0 6.8 0 9.15 3.64 2.74 4.26-2.44 8.79.05 14 2.21 4.57 7.39 3.26 9.26 7.65 1.94 4.57-1.65 10.83-4.47 14-3.9 4.4-7 3.69-10.69 8.75-1.46 2-2.16 3.91-3.51 7.63-3.72 10.23-2.27 12.31-4.55 15.76z"/><path fill="#779186" d="M286 243c-4.94 2.37-14.41-1.72-17.31-9-3.74-9.39 5.71-18.43 6.94-19.57 5.27-4.89 13.2-7.49 20.45-5.56 4.44 1.19 11 4.69 11.14 9.34.09 2.49-1.68 4.45-4 7-4.09 4.51-6.52 4.1-10.31 7.8-4.97 4.9-3.44 8.35-6.91 9.99zm32.53-43.61c-6.21 1.37-15.37.31-18.24-5.08-2.74-5.11-1.49-8.9 3-11.92s15.14-13 20.1-12.79c1.2.06 11.26-1.39 14.15 3.48 3.89 6.56-5.72 23.37-19.01 26.31zm2.71-35.39c-1.36 1-1.86 1.64-6.68 2-7.54.5-10.53 4.73-16.26 3.85s-10.73-.14-11.2-6.73 1.6-16.23 8.28-18.68c9.47-3.47 17.68-2.46 20.17-1.59 3.56 1.25 8.71 3.07 10.34 8.07s-.99 10.5-4.65 13.08zm-68.79 1.22a18.89 18.89 0 0 1-9.94-2.29c-2.18-1.21-6.51-3.59-7.46-8.17-1.07-5.09 2.56-10.31 6.43-12.53 3-1.73 3.79-.31 10.87-2.06 5.89-1.46 6.68-2.77 10.06-2.6.33 0 6.94.42 8.95 4.18 3.44 6.46-6.89 22.54-18.91 23.47z"/></svg>