<svg xmlns="http://www.w3.org/2000/svg" viewBox="0 0 245.68 719.31" width="245.68" height="719.31"><g fill="#5f7746"><path d="M35.2 673.49c-4.51 3-7.54 11.33-3.87 17.47 2.79 4.66 9.28 8 13.15 5.78 3-1.68 5.26-5.16 6.38-4.3s-2.38 4.56 3.71 6.86a24.57 24.57 0 0 0 7.26 1.7c3.16.21 3.68-.74 4.76-.12 2.11 1.22 1 4.75 2.17 8.67 1.34 4.53 5.59 9.16 9.92 9.73 7.23.94 15.57-9.29 15.07-17.29-.12-2.07-1.61-5.54-4.6-12.49-2.47-5.75-3.16-6.44-3.06-8.57.23-4.86 4.06-6 4.12-11.08 0-.65 0-5.23-2.8-7-3.28-2.11-6.77 1.88-10.74 0-3.52-1.7-2.51-5.69-5.89-7.13s-8.34 1.27-10.79 3.44c-3.39 3-2.84 5.4-6.74 8.23-1.55 1.13-3 1.67-5.88 2.71-7.87 2.75-9.51 1.63-12.17 3.39z"/><path d="M31.75 654.48c-1.82 3.81 1.32 11.1 6.93 13.34 7.24 2.88 14.19-4.4 15.07-5.35 3.77-4.05 5.77-10.16 4.28-15.75-.91-3.41-3.61-8.44-7.19-8.57-1.92-.08-3.42 1.29-5.37 3.05-3.48 3.15-3.16 5-6 7.94-3.8 3.86-6.47 2.69-7.72 5.34zm33.59-25.03c-1.06 4.78-.24 11.83 3.91 14 3.94 2.1 6.85 1.14 9.18-2.32s10-11.65 9.85-15.47c0-.92 1.07-8.67-2.68-10.9-5.05-2.94-18 4.46-20.26 14.69zm27.27-2.09c-.73 1-1.26 1.43-1.51 5.14-.38 5.81-3.64 8.12-3 12.53s.1 8.26 5.17 8.62 12.5-1.23 14.39-6.38c2.68-7.29 1.9-13.61 1.22-15.53-1-2.73-2.35-6.7-6.21-8s-8.09.8-10.06 3.62zm-.95 52.98a14.48 14.48 0 0 0 1.76 7.66c.93 1.68 2.76 5 6.29 5.75 3.92.82 7.94-2 9.65-5 1.33-2.3.24-2.92 1.58-8.37 1.13-4.53 2.14-5.14 2-7.74 0-.26-.33-5.35-3.22-6.89-4.97-2.63-17.35 5.33-18.06 14.59z"/></g><path fill="#5b4b3a" d="M218.15 59.35c4.51 3 7.54 11.33 3.87 17.47-2.79 4.66-9.28 8-13.15 5.78-3-1.68-5.26-5.16-6.37-4.3s2.37 4.56-3.71 6.86a25 25 0 0 1-7.27 1.67c-3.15.21-3.68-.74-4.76-.12-2.11 1.22-1 4.74-2.17 8.66-1.34 4.54-5.59 9.17-9.92 9.73-7.23 1-15.57-9.29-15.07-17.28.13-2.07 1.62-5.54 4.6-12.49 2.47-5.76 3.16-6.44 3.06-8.57-.22-4.86-4.06-6-4.12-11.08 0-.65 0-5.23 2.8-7 3.28-2.11 6.77 1.88 10.74 0 3.52-1.7 2.51-5.69 5.89-7.13s8.34 1.27 10.79 3.44c3.39 3 2.85 5.4 6.74 8.23a22.06 22.06 0 0 0 5.9 2.63c7.86 2.86 9.5 1.74 12.15 3.5z"/><path fill="#5b4b3a" d="M221.6 40.34c1.83 3.81-1.32 11.1-6.93 13.33-7.23 2.88-14.19-4.39-15.07-5.34-3.77-4.06-5.77-10.16-4.28-15.75.91-3.42 3.61-8.44 7.19-8.58 1.92-.07 3.43 1.29 5.37 3.06 3.48 3.15 3.16 5 6 7.94 3.8 3.87 6.45 2.69 7.72 5.34zM188 15.31c1.06 4.78.24 11.83-3.91 14.05-3.93 2.1-6.85 1.14-9.18-2.32s-10-11.65-9.85-15.47c.05-.93-1.07-8.67 2.68-10.9 5.06-2.99 18.01 4.4 20.26 14.64zm-27.26-2.09c.74 1 1.26 1.43 1.51 5.14.39 5.81 3.64 8.12 3 12.53s-.1 8.26-5.17 8.62-12.5-1.23-14.39-6.38c-2.68-7.29-1.9-13.61-1.22-15.53 1-2.73 2.36-6.7 6.21-8s8.09.8 10.06 3.62zm.96 52.98a14.55 14.55 0 0 1-1.77 7.65c-.92 1.68-2.76 5-6.29 5.75-3.92.82-7.94-2-9.65-5-1.33-2.31-.24-2.92-1.58-8.37-1.12-4.53-2.14-5.14-2-7.75 0-.25.33-5.34 3.22-6.88C148.6 49 161 56.94 161.7 66.2z"/><path fill="#aa9c62" d="M6.73 250.15C1.22 253.79-2.49 264 2 271.5c3.41 5.7 11.35 9.73 16.08 7.07 3.64-2.05 6.43-6.31 7.79-5.25s-2.87 5.57 4.53 8.38a30.69 30.69 0 0 0 8.88 2.05c3.86.25 4.5-.91 5.82-.15 2.58 1.49 1.23 5.79 2.65 10.59 1.64 5.54 6.83 11.2 12.13 11.89 8.83 1.16 19-11.35 18.42-21.13-.15-2.53-2-6.77-5.62-15.26-3-7-3.87-7.88-3.75-10.48.28-5.94 5-7.32 5-13.54 0-.8 0-6.4-3.43-8.61-4-2.58-8.28 2.3-13.13 0-4.3-2.08-3.07-7-7.2-8.72-4.3-1.83-10.19 1.55-13.19 4.21-4.14 3.67-3.47 6.59-8.24 10.05-1.89 1.38-3.68 2-7.18 3.32C12 249.38 10 248 6.73 250.15z"/><path fill="#aa9c62" d="M2.52 226.92c-2.23 4.66 1.61 13.57 8.47 16.3 8.84 3.52 17.34-5.38 18.42-6.53 4.6-5 7.05-12.42 5.23-19.26-1.12-4.17-4.42-10.31-8.79-10.48-2.35-.09-4.19 1.58-6.57 3.73-4.25 3.86-3.86 6.15-7.34 9.71-4.63 4.73-7.87 3.29-9.42 6.53zm41.05-30.6c-1.29 5.85-.29 14.47 4.78 17.18 4.81 2.57 8.38 1.39 11.22-2.84s12.28-14.24 12-18.91c0-1.13 1.31-10.6-3.28-13.32-6.13-3.66-21.95 5.38-24.72 17.89zm33.34-2.55c-.9 1.28-1.55 1.75-1.85 6.29-.47 7.1-4.45 9.91-3.62 15.3s.13 10.11 6.33 10.55 15.27-1.51 17.58-7.8c3.27-8.91 2.32-16.64 1.49-19-1.17-3.35-2.88-8.2-7.59-9.74s-9.93.95-12.34 4.4zm-1.17 64.76a17.71 17.71 0 0 0 2.16 9.35c1.13 2.05 3.37 6.12 7.68 7 4.8 1 9.7-2.41 11.8-6 1.62-2.83.29-3.57 1.93-10.23 1.37-5.55 2.61-6.3 2.45-9.47 0-.31-.39-6.54-3.93-8.42-6.08-3.28-21.22 6.45-22.09 17.77z"/><path fill="#779186" d="M238.53 458c5.85 3.87 9.8 14.72 5 22.69-3.63 6.05-12.06 10.34-17.08 7.51-3.87-2.18-6.83-6.71-8.28-5.58s3.09 5.92-4.82 8.91a32.64 32.64 0 0 1-9.43 2.17c-4.1.27-4.78-1-6.18-.16-2.75 1.58-1.31 6.16-2.82 11.25-1.74 5.88-7.26 11.9-12.88 12.63-9.39 1.23-20.22-12.06-19.58-22.45.17-2.68 2.11-7.19 6-16.21 3.21-7.47 4.11-8.36 4-11.13-.3-6.32-5.27-7.78-5.36-14.38 0-.85 0-6.8 3.64-9.15 4.26-2.75 8.79 2.44 14-.05 4.57-2.21 3.26-7.39 7.65-9.26 4.57-1.94 10.83 1.65 14 4.47 4.4 3.9 3.69 7 8.75 10.68 2 1.46 3.91 2.17 7.63 3.52 10.23 3.68 12.31 2.22 15.76 4.54z"/><path fill="#779186" d="M243 433.28c2.37 5-1.72 14.42-9 17.32-9.39 3.74-18.43-5.71-19.57-6.94-4.89-5.27-7.49-13.2-5.56-20.45 1.19-4.44 4.69-11 9.34-11.14 2.49-.1 4.45 1.67 7 4 4.51 4.1 4.1 6.53 7.8 10.31 4.9 4.99 8.35 3.46 9.99 6.9zm-43.61-32.5c1.37 6.2.31 15.36-5.08 18.24-5.11 2.73-8.9 1.49-11.92-3s-13-15.13-12.79-20.09c.06-1.2-1.39-11.26 3.48-14.15 6.56-3.9 23.37 5.71 26.31 19zM164 398.06c1 1.37 1.64 1.86 2 6.68.5 7.55 4.73 10.54 3.85 16.26s-.14 10.74-6.73 11.21-16.23-1.6-18.68-8.29c-3.47-9.47-2.46-17.67-1.59-20.16 1.25-3.56 3.07-8.71 8.07-10.35s10.5.99 13.08 4.65zm1.22 68.8a19 19 0 0 1-2.29 9.94c-1.21 2.18-3.59 6.5-8.17 7.46-5.09 1.07-10.31-2.57-12.53-6.43-1.73-3-.31-3.8-2.06-10.87-1.46-5.89-2.77-6.69-2.6-10.06 0-.33.42-6.94 4.18-8.95 6.46-3.45 22.54 6.89 23.47 18.91z"/></svg>